<svg width="18" height="13" viewBox="0 0 18 13" fill="none" xmlns="http://www.w3.org/2000/svg"><path d="M2.78469 6.04093L2.78467 6.04091C2.56563 5.83169 2.27046 5.71566 1.96449 5.71566C1.65852 5.71566 1.36334 5.83169 1.14431 6.04091L1.14426 6.04095C0.924979 6.25054 0.8 6.53675 0.8 6.83721C0.8 7.13767 0.924979 7.42388 1.14426 7.63346L1.14428 7.63349L4.92489 11.2458C5.12302 11.4352 5.35777 11.5849 5.6155 11.687C5.87323 11.789 6.14917 11.8414 6.42764 11.8414C6.70612 11.8414 6.98206 11.789 7.23979 11.687C7.49752 11.5849 7.73227 11.4352 7.9304 11.2458L16.8557 2.71782L16.8557 2.7178C17.075 2.50822 17.2 2.22201 17.2 1.92155C17.2 1.62109 17.075 1.33487 16.8557 1.12529L16.8557 1.12525C16.6367 0.916027 16.3415 0.8 16.0355 0.8C15.7295 0.8 15.4344 0.916027 15.2153 1.12525L15.2153 1.12526L6.42717 9.52124L2.78469 6.04093Z" fill="#1D1D1B" stroke="#1D1D1B" stroke-width="0.4"/></svg>