<svg width="39" height="44" viewBox="0 0 39 44" fill="none" xmlns="http://www.w3.org/2000/svg">
<path fill-rule="evenodd" clip-rule="evenodd" d="M0 22.7302V1C0 0.44772 0.44772 0 1 0H25C25.5523 0 26 0.44771 26 1V22.6094C26 23.4225 25.0813 23.8957 24.4193 23.4236L22.0375 21.7248C21.7115 21.4923 21.2782 21.4767 20.9363 21.6852L17.9913 23.4809C17.6871 23.6664 17.3073 23.676 16.9941 23.5063L13.4765 21.5997C13.1793 21.4386 12.8207 21.4386 12.5235 21.5997L8.97651 23.5222C8.67927 23.6833 8.32074 23.6833 8.02349 23.5222L4.62601 21.6808C4.25131 21.4777 3.78907 21.5344 3.47458 21.822L1.67491 23.4681C1.03325 24.055 0 23.5998 0 22.7302ZM39 27.8559V43C39 43.5523 38.5523 44 38 44H14C13.4477 44 13 43.5523 13 43V27.961C13 27.2129 13.7913 26.7297 14.4568 27.0714L17.0768 28.4168C17.3446 28.5543 17.66 28.5639 17.9356 28.4429L21.1205 27.0446C21.3635 26.938 21.6389 26.9322 21.8861 27.0287L25.6365 28.4923C25.8702 28.5835 26.1298 28.5835 26.3635 28.4923L30.1365 27.0199C30.3702 26.9287 30.6298 26.9287 30.8635 27.0199L34.5183 28.4462C34.8204 28.5641 35.161 28.5281 35.4318 28.3498L37.45 27.0207C38.1149 26.5829 39 27.0598 39 27.8559ZM23 39C23 38.4477 23.4477 38 24 38H28C28.5523 38 29 38.4477 29 39C29 39.5523 28.5523 40 28 40H24C23.4477 40 23 39.5523 23 39ZM35 33H17C16.4477 33 16 33.4477 16 34C16 34.5523 16.4477 35 17 35H35C35.5523 35 36 34.5523 36 34C36 33.4477 35.5523 33 35 33ZM4 11H14C14.5523 11 15 11.4477 15 12C15 12.5523 14.5523 13 14 13H4C3.44772 13 3 12.5523 3 12C3 11.4477 3.44772 11 4 11ZM22 11H18C17.4477 11 17 11.4477 17 12C17 12.5523 17.4477 13 18 13H22C22.5523 13 23 12.5523 23 12C23 11.4477 22.5523 11 22 11ZM4 6H22C22.5523 6 23 6.44772 23 7C23 7.55228 22.5523 8 22 8H4C3.44772 8 3 7.55228 3 7C3 6.44772 3.44772 6 4 6Z" fill="#3A41E8"/>
</svg>
